# Blender 4.3.1
# www.blender.org
mtllib xilo_stick.mtl
o Baqueta
v 0.000000 0.807676 -1.676715
v 0.018764 0.796842 -1.676715
v 0.018764 0.775176 -1.676715
v -0.000000 0.764342 -1.676715
v -0.018764 0.775176 -1.676715
v -0.018764 0.796842 -1.676715
v -0.000000 0.807676 0.146772
v 0.018764 0.796843 0.146772
v 0.018764 0.775176 0.146772
v 0.000000 0.764343 0.146772
v -0.018764 0.775176 0.146772
v -0.018764 0.796843 0.146772
v -0.000000 0.786009 -1.677403
v 0.000000 0.786009 0.148411
v 0.021651 0.798509 -1.371985
v -0.000000 0.811009 -1.371985
v 0.021651 0.773509 -1.371985
v 0.000000 0.761009 -1.371985
v -0.021651 0.773509 -1.371985
v -0.021651 0.798509 -1.371985
v 0.021651 0.798509 -0.161756
v -0.000000 0.811009 -0.161756
v 0.021651 0.773509 -0.161756
v 0.000000 0.761009 -0.161756
v -0.021651 0.773509 -0.161756
v -0.021651 0.798509 -0.161756
v 0.037890 0.720218 -1.677403
v 0.032813 0.720218 -1.696348
v 0.054761 0.747795 -1.709019
v 0.063233 0.786009 -1.713910
v 0.054761 0.824223 -1.709019
v 0.032813 0.851801 -1.696348
v 0.000000 0.863068 -1.677403
v 0.018945 0.851801 -1.710217
v 0.031616 0.824223 -1.732164
v 0.036507 0.786009 -1.740636
v 0.031616 0.747795 -1.732164
v 0.018945 0.720218 -1.710217
v -0.000000 0.720218 -1.715293
v -0.000000 0.747795 -1.740636
v -0.000000 0.786009 -1.750418
v -0.000000 0.824223 -1.740636
v -0.000000 0.851801 -1.715293
v -0.018945 0.851801 -1.710216
v -0.031616 0.824223 -1.732164
v -0.036507 0.786009 -1.740636
v -0.031616 0.747795 -1.732164
v -0.018945 0.720218 -1.710217
v -0.032813 0.720218 -1.696348
v -0.054761 0.747795 -1.709019
v -0.063233 0.786009 -1.713911
v -0.054761 0.824223 -1.709019
v -0.032813 0.851801 -1.696348
v -0.037890 0.851801 -1.677403
v -0.063233 0.824223 -1.677403
v -0.073015 0.786009 -1.677403
v -0.063233 0.747795 -1.677403
v -0.037890 0.720218 -1.677403
v -0.000000 0.708951 -1.677403
v -0.032813 0.720218 -1.658458
v -0.054761 0.747795 -1.645787
v -0.063233 0.786009 -1.640896
v -0.054761 0.824223 -1.645787
v -0.032813 0.851801 -1.658458
v -0.018945 0.851801 -1.644590
v -0.031616 0.824223 -1.622642
v -0.036507 0.786009 -1.614170
v -0.031616 0.747795 -1.622642
v -0.018945 0.720218 -1.644590
v 0.000000 0.720218 -1.639513
v 0.000000 0.747795 -1.614170
v 0.000000 0.786009 -1.604388
v 0.000000 0.824223 -1.614170
v 0.000000 0.851801 -1.639513
v 0.018945 0.851801 -1.644590
v 0.031616 0.824223 -1.622642
v 0.036507 0.786009 -1.614170
v 0.031616 0.747795 -1.622642
v 0.018945 0.720218 -1.644590
v 0.032813 0.720218 -1.658458
v 0.054761 0.747795 -1.645787
v 0.063233 0.786009 -1.640896
v 0.054761 0.824223 -1.645787
v 0.032813 0.851801 -1.658458
v 0.037890 0.851801 -1.677403
v 0.063233 0.824223 -1.677403
v 0.073015 0.786009 -1.677403
v 0.063233 0.747795 -1.677403
v -0.000000 0.800176 -1.677317
v 0.010946 0.804967 -1.676715
v 0.012269 0.793092 -1.677317
v -0.000000 0.800176 0.148206
v 0.010946 0.804968 0.146772
v 0.012269 0.793093 0.148206
v 0.021891 0.786009 -1.676715
v 0.012269 0.778926 -1.677317
v 0.021891 0.786009 0.146772
v 0.012269 0.778926 0.148206
v 0.010946 0.767051 -1.676715
v -0.000000 0.771842 -1.677317
v 0.010946 0.767051 0.146772
v 0.000000 0.771843 0.148206
v -0.010946 0.767051 -1.676715
v -0.012269 0.778926 -1.677317
v -0.010946 0.767051 0.146772
v -0.012269 0.778926 0.148206
v -0.021891 0.786009 -1.676715
v -0.012269 0.793092 -1.677317
v -0.021891 0.786009 0.146772
v -0.012269 0.793093 0.148206
v -0.010946 0.804967 -1.676715
v -0.010946 0.804968 0.146772
v 0.021290 0.798301 -1.637591
v -0.000000 0.810592 -1.637591
v 0.021290 0.773717 -1.637591
v -0.000000 0.761426 -1.637591
v -0.021290 0.773717 -1.637591
v -0.021290 0.798301 -1.637591
v 0.012449 0.807572 -1.371985
v 0.024898 0.786009 -1.371985
v 0.012449 0.764447 -1.371985
v -0.012449 0.764447 -1.371985
v -0.024898 0.786009 -1.371985
v -0.012449 0.807572 -1.371985
v 0.021651 0.798509 -0.767227
v 0.021290 0.798301 0.105749
v -0.000000 0.811009 -0.767227
v -0.000000 0.810593 0.105749
v 0.021651 0.773509 -0.767227
v 0.021290 0.773718 0.105749
v 0.000000 0.761009 -0.767227
v 0.000000 0.761426 0.105749
v -0.021651 0.773509 -0.767227
v -0.021290 0.773718 0.105749
v -0.021651 0.798509 -0.767227
v -0.021290 0.798301 0.105749
v 0.012449 0.807572 -0.161756
v 0.024898 0.786009 -0.161756
v 0.012449 0.764447 -0.161756
v -0.012449 0.764447 -0.161756
v -0.024898 0.786009 -0.161756
v -0.012449 0.807572 -0.161756
v 0.036961 0.720317 -1.687307
v 0.044853 0.732027 -1.703299
v 0.061065 0.766232 -1.712659
v 0.061065 0.805786 -1.712659
v 0.044853 0.839991 -1.703299
v 0.019841 0.858908 -1.688858
v 0.027057 0.851701 -1.704460
v 0.044703 0.824223 -1.722106
v 0.025896 0.839991 -1.722256
v 0.051618 0.786009 -1.729022
v 0.035256 0.805786 -1.738468
v 0.044703 0.747795 -1.722106
v 0.035256 0.766232 -1.738468
v 0.027057 0.720317 -1.704460
v 0.025896 0.732027 -1.722256
v 0.009904 0.720317 -1.714364
v -0.000000 0.732027 -1.729194
v 0.016362 0.747795 -1.738468
v -0.000000 0.766232 -1.747915
v 0.018894 0.786009 -1.747915
v -0.000000 0.805786 -1.747915
v 0.016362 0.824223 -1.738468
v -0.000000 0.839991 -1.729194
v 0.009904 0.851701 -1.714364
v -0.009904 0.851701 -1.714364
v -0.016362 0.824223 -1.738468
v -0.025896 0.839991 -1.722256
v -0.018894 0.786009 -1.747915
v -0.035256 0.805786 -1.738468
v -0.016362 0.747795 -1.738468
v -0.035256 0.766232 -1.738468
v -0.009904 0.720317 -1.714364
v -0.025896 0.732027 -1.722256
v -0.027057 0.720317 -1.704460
v -0.044853 0.732027 -1.703299
v -0.044703 0.747795 -1.722106
v -0.061065 0.766232 -1.712659
v -0.051618 0.786009 -1.729021
v -0.061065 0.805786 -1.712659
v -0.044703 0.824223 -1.722106
v -0.044853 0.839991 -1.703299
v -0.027057 0.851701 -1.704460
v -0.036961 0.851701 -1.687306
v -0.061065 0.824223 -1.693765
v -0.051791 0.839991 -1.677403
v -0.070512 0.786009 -1.696297
v -0.070512 0.805786 -1.677403
v -0.061065 0.747795 -1.693765
v -0.070512 0.766232 -1.677403
v -0.036961 0.720317 -1.687307
v -0.051791 0.732027 -1.677403
v -0.022911 0.713111 -1.677403
v -0.036961 0.720317 -1.667499
v -0.044853 0.732027 -1.651507
v -0.061065 0.747795 -1.661041
v -0.061065 0.766232 -1.642147
v -0.070512 0.786009 -1.658509
v -0.061065 0.805786 -1.642147
v -0.061065 0.824223 -1.661041
v -0.044853 0.839991 -1.651507
v -0.036961 0.851701 -1.667500
v -0.027057 0.851701 -1.650346
v -0.044703 0.824223 -1.632700
v -0.025896 0.839991 -1.632550
v -0.051618 0.786009 -1.625785
v -0.035256 0.805786 -1.616338
v -0.044703 0.747795 -1.632700
v -0.035256 0.766232 -1.616338
v -0.027057 0.720317 -1.650346
v -0.025896 0.732027 -1.632551
v -0.009904 0.720317 -1.640442
v 0.000000 0.732027 -1.625612
v -0.016362 0.747795 -1.616338
v 0.000000 0.766232 -1.606891
v -0.018894 0.786009 -1.606891
v 0.000000 0.805786 -1.606891
v -0.016362 0.824223 -1.616338
v 0.000000 0.839991 -1.625612
v -0.009904 0.851701 -1.640442
v 0.009904 0.851701 -1.640442
v 0.016362 0.824223 -1.616338
v 0.025896 0.839991 -1.632551
v 0.018894 0.786009 -1.606891
v 0.035256 0.805786 -1.616338
v 0.016362 0.747795 -1.616338
v 0.035256 0.766232 -1.616338
v 0.009904 0.720317 -1.640442
v 0.025896 0.732027 -1.632550
v 0.027057 0.720317 -1.650346
v 0.044853 0.732027 -1.651507
v 0.044703 0.747795 -1.632700
v 0.061065 0.766232 -1.642147
v 0.051618 0.786009 -1.625785
v 0.061065 0.805786 -1.642147
v 0.044703 0.824223 -1.632700
v 0.044853 0.839991 -1.651507
v 0.027057 0.851701 -1.650346
v 0.036961 0.851701 -1.667499
v 0.061065 0.824223 -1.661041
v 0.051791 0.839991 -1.677403
v 0.070512 0.786009 -1.658509
v 0.070512 0.805786 -1.677403
v 0.061065 0.747795 -1.661041
v 0.070512 0.766232 -1.677403
v 0.022911 0.713111 -1.677403
v 0.051791 0.732027 -1.677403
v 0.036961 0.720317 -1.667499
v 0.022911 0.858908 -1.677403
v 0.019841 0.858908 -1.665948
v 0.019841 0.713111 -1.665948
v 0.011455 0.713111 -1.657562
v 0.011455 0.858908 -1.657562
v 0.000000 0.858908 -1.654492
v -0.000000 0.713111 -1.654492
v -0.011455 0.713111 -1.657562
v -0.011455 0.858908 -1.657562
v -0.019841 0.858908 -1.665948
v -0.019841 0.713111 -1.665948
v -0.022911 0.858908 -1.677403
v -0.019841 0.858908 -1.688858
v -0.019841 0.713111 -1.688858
v -0.011455 0.713111 -1.697244
v -0.011455 0.858908 -1.697244
v -0.000000 0.858908 -1.700313
v -0.000000 0.713111 -1.700313
v 0.011455 0.713111 -1.697244
v 0.011455 0.858908 -1.697244
v 0.036961 0.851701 -1.687307
v 0.061065 0.824223 -1.693766
v 0.070512 0.786009 -1.696297
v 0.061065 0.747795 -1.693765
v 0.019841 0.713111 -1.688858
v 0.008243 0.800286 -1.677274
v 0.008243 0.800287 0.148103
v 0.016486 0.786009 -1.677274
v 0.016486 0.786009 0.148103
v 0.008243 0.771732 -1.677274
v 0.008243 0.771732 0.148103
v -0.008243 0.771732 -1.677274
v -0.008243 0.771732 0.148103
v -0.016486 0.786009 -1.677274
v -0.016486 0.786009 0.148103
v -0.008243 0.800286 -1.677274
v -0.008243 0.800287 0.148103
v 0.012261 0.807246 -1.637591
v 0.024522 0.786009 -1.637591
v 0.012261 0.764772 -1.637591
v -0.012261 0.764772 -1.637591
v -0.024522 0.786009 -1.637591
v -0.012261 0.807246 -1.637591
v 0.012449 0.807572 -0.767227
v 0.012261 0.807246 0.105749
v 0.024898 0.786009 -0.767227
v 0.024522 0.786009 0.105749
v 0.012449 0.764447 -0.767227
v 0.012261 0.764772 0.105749
v -0.012449 0.764447 -0.767227
v -0.012261 0.764772 0.105749
v -0.024898 0.786009 -0.767227
v -0.024522 0.786009 0.105749
v -0.012261 0.807246 0.105749
v -0.012449 0.807572 -0.767227
v 0.025546 0.714187 -1.684248
v 0.050062 0.732040 -1.690817
v 0.068095 0.766232 -1.695649
v 0.068095 0.805786 -1.695649
v 0.050062 0.839979 -1.690817
v 0.025546 0.857831 -1.684248
v 0.018701 0.857831 -1.696104
v 0.036648 0.839979 -1.714051
v 0.049849 0.805786 -1.727252
v 0.049849 0.766232 -1.727252
v 0.036648 0.732040 -1.714051
v 0.018701 0.714187 -1.696104
v 0.006845 0.714187 -1.702949
v 0.013414 0.732040 -1.727465
v 0.018246 0.766232 -1.745498
v 0.018246 0.805786 -1.745498
v 0.013414 0.839979 -1.727465
v 0.006845 0.857831 -1.702949
v -0.006845 0.857831 -1.702949
v -0.013414 0.839979 -1.727465
v -0.018246 0.805786 -1.745498
v -0.018246 0.766232 -1.745498
v -0.013414 0.732040 -1.727465
v -0.006845 0.714187 -1.702949
v -0.018701 0.714187 -1.696104
v -0.036648 0.732040 -1.714051
v -0.049849 0.766232 -1.727252
v -0.049849 0.805786 -1.727252
v -0.036648 0.839979 -1.714051
v -0.018701 0.857831 -1.696104
v -0.025546 0.857831 -1.684248
v -0.050062 0.839979 -1.690817
v -0.068095 0.805786 -1.695649
v -0.068095 0.766232 -1.695649
v -0.050062 0.732040 -1.690817
v -0.025546 0.714187 -1.684248
v -0.025546 0.714187 -1.670558
v -0.050062 0.732040 -1.663989
v -0.068095 0.766232 -1.659157
v -0.068095 0.805786 -1.659157
v -0.050062 0.839979 -1.663989
v -0.025546 0.857831 -1.670558
v -0.018701 0.857831 -1.658702
v -0.036648 0.839979 -1.640755
v -0.049849 0.805786 -1.627554
v -0.049849 0.766232 -1.627554
v -0.036648 0.732040 -1.640755
v -0.018701 0.714187 -1.658702
v -0.006845 0.714187 -1.651857
v -0.013414 0.732040 -1.627341
v -0.018246 0.766232 -1.609308
v -0.018246 0.805786 -1.609308
v -0.013414 0.839979 -1.627341
v -0.006845 0.857831 -1.651857
v 0.006845 0.857831 -1.651857
v 0.013414 0.839979 -1.627341
v 0.018246 0.805786 -1.609308
v 0.018246 0.766232 -1.609308
v 0.013414 0.732040 -1.627341
v 0.006845 0.714187 -1.651857
v 0.018701 0.714187 -1.658702
v 0.036648 0.732040 -1.640755
v 0.049849 0.766232 -1.627554
v 0.049849 0.805786 -1.627554
v 0.036648 0.839979 -1.640755
v 0.018701 0.857831 -1.658702
v 0.025546 0.857831 -1.670558
v 0.050062 0.839979 -1.663989
v 0.068095 0.805786 -1.659157
v 0.068095 0.766232 -1.659157
v 0.050062 0.732040 -1.663989
v 0.025546 0.714187 -1.670558
vn -0.0000 0.8871 -0.4615
vn 0.7683 0.4436 -0.4615
vn 0.7683 -0.4436 -0.4615
vn -0.0000 -0.8871 -0.4615
vn -0.7683 -0.4436 -0.4615
vn -0.7683 0.4436 -0.4615
vn -0.0000 0.8990 0.4379
vn 0.7786 0.4495 0.4379
vn 0.7786 -0.4495 0.4379
vn -0.0000 -0.8990 0.4379
vn -0.7786 -0.4495 0.4379
vn -0.7786 0.4495 0.4379
vn -0.0000 -0.0000 -1.0000
vn -0.0000 -0.0000 1.0000
vn 0.8660 0.5000 -0.0007
vn -0.0000 1.0000 -0.0007
vn 0.8660 -0.5000 -0.0007
vn -0.0000 -1.0000 -0.0007
vn -0.8660 -0.5000 -0.0007
vn -0.8660 0.5000 -0.0007
vn 0.8660 0.5000 0.0007
vn -0.0000 1.0000 0.0007
vn 0.8660 -0.5000 0.0007
vn -0.0000 -1.0000 0.0007
vn -0.8660 -0.5000 0.0007
vn -0.8660 0.5000 0.0007
vn 0.5613 -0.8276 -0.0000
vn 0.4779 -0.8322 -0.2811
vn 0.7653 -0.4796 -0.4292
vn 0.8736 -0.0000 -0.4867
vn 0.7653 0.4796 -0.4292
vn 0.4779 0.8322 -0.2811
vn -0.0000 1.0000 -0.0000
vn 0.2710 0.8362 -0.4768
vn 0.4444 0.4836 -0.7541
vn 0.5085 -0.0000 -0.8610
vn 0.4444 -0.4836 -0.7541
vn 0.2710 -0.8362 -0.4768
vn -0.0000 -0.8372 -0.5469
vn -0.0000 -0.4841 -0.8750
vn -0.0000 0.4841 -0.8750
vn -0.0000 0.8372 -0.5469
vn -0.2710 0.8362 -0.4768
vn -0.4444 0.4836 -0.7541
vn -0.5085 -0.0000 -0.8610
vn -0.4444 -0.4836 -0.7541
vn -0.2710 -0.8362 -0.4768
vn -0.4779 -0.8322 -0.2811
vn -0.7653 -0.4796 -0.4292
vn -0.8736 -0.0000 -0.4867
vn -0.7653 0.4796 -0.4292
vn -0.4779 0.8322 -0.2811
vn -0.5613 0.8276 -0.0000
vn -0.8811 0.4730 -0.0000
vn -1.0000 -0.0000 -0.0000
vn -0.8811 -0.4730 -0.0000
vn -0.5613 -0.8276 -0.0000
vn -0.0000 -1.0000 -0.0000
vn -0.4779 -0.8322 0.2811
vn -0.7653 -0.4796 0.4292
vn -0.8736 -0.0000 0.4867
vn -0.7653 0.4796 0.4292
vn -0.4779 0.8322 0.2811
vn -0.2710 0.8362 0.4768
vn -0.4444 0.4836 0.7541
vn -0.5085 -0.0000 0.8610
vn -0.4444 -0.4836 0.7541
vn -0.2710 -0.8362 0.4768
vn -0.0000 -0.8372 0.5469
vn -0.0000 -0.4841 0.8750
vn -0.0000 0.4841 0.8750
vn -0.0000 0.8372 0.5469
vn 0.2710 0.8362 0.4768
vn 0.4444 0.4836 0.7541
vn 0.5085 -0.0000 0.8610
vn 0.4444 -0.4836 0.7541
vn 0.2710 -0.8362 0.4768
vn 0.4779 -0.8322 0.2811
vn 0.7653 -0.4796 0.4292
vn 0.8736 -0.0000 0.4867
vn 0.7653 0.4796 0.4292
vn 0.4779 0.8322 0.2811
vn 0.5613 0.8276 -0.0000
vn 0.8811 0.4730 -0.0000
vn 1.0000 -0.0000 -0.0000
vn 0.8811 -0.4730 -0.0000
vn -0.0000 0.0490 -0.9988
vn 0.4454 0.7714 -0.4545
vn 0.0424 0.0245 -0.9988
vn -0.0000 0.1156 0.9933
vn 0.4508 0.7807 0.4327
vn 0.1001 0.0578 0.9933
vn 0.8907 -0.0000 -0.4545
vn 0.0424 -0.0245 -0.9988
vn 0.9015 -0.0000 0.4327
vn 0.1001 -0.0578 0.9933
vn 0.4454 -0.7714 -0.4545
vn -0.0000 -0.0490 -0.9988
vn 0.4508 -0.7807 0.4327
vn -0.0000 -0.1156 0.9933
vn -0.4454 -0.7714 -0.4545
vn -0.0424 -0.0245 -0.9988
vn -0.4508 -0.7807 0.4327
vn -0.1001 -0.0578 0.9933
vn -0.8907 -0.0000 -0.4545
vn -0.0424 0.0245 -0.9988
vn -0.9015 -0.0000 0.4327
vn -0.1001 0.0578 0.9933
vn -0.4454 0.7714 -0.4545
vn -0.4508 0.7807 0.4327
vn 0.8655 0.4997 -0.0356
vn -0.0000 0.9994 -0.0356
vn 0.8655 -0.4997 -0.0356
vn -0.0000 -0.9994 -0.0356
vn -0.8655 -0.4997 -0.0356
vn -0.8655 0.4997 -0.0356
vn 0.5000 0.8660 -0.0007
vn 1.0000 -0.0000 -0.0007
vn 0.5000 -0.8660 -0.0007
vn -0.5000 -0.8660 -0.0007
vn -1.0000 -0.0000 -0.0007
vn -0.5000 0.8660 -0.0007
vn 0.8660 0.5000 -0.0000
vn 0.8655 0.4997 0.0340
vn -0.0000 0.9994 0.0340
vn 0.8660 -0.5000 -0.0000
vn 0.8655 -0.4997 0.0340
vn -0.0000 -0.9994 0.0340
vn -0.8660 -0.5000 -0.0000
vn -0.8655 -0.4997 0.0340
vn -0.8660 0.5000 -0.0000
vn -0.8655 0.4997 0.0340
vn 0.5000 0.8660 0.0007
vn 1.0000 -0.0000 0.0007
vn 0.5000 -0.8660 0.0007
vn -0.5000 -0.8660 0.0007
vn -1.0000 -0.0000 0.0007
vn -0.5000 0.8660 0.0007
vn 0.5444 -0.8268 -0.1411
vn 0.6411 -0.6757 -0.3640
vn 0.8460 -0.2479 -0.4720
vn 0.8460 0.2479 -0.4720
vn 0.6411 0.6757 -0.3640
vn 0.2429 0.9607 -0.1345
vn 0.3951 0.8354 -0.3822
vn 0.6268 0.4824 -0.6119
vn 0.3703 0.6801 -0.6327
vn 0.7166 -0.0000 -0.6975
vn 0.4922 0.2500 -0.8338
vn 0.6268 -0.4824 -0.6119
vn 0.4922 -0.2500 -0.8338
vn 0.3951 -0.8354 -0.3822
vn 0.3703 -0.6801 -0.6327
vn 0.1458 -0.8384 -0.5252
vn -0.0000 -0.6809 -0.7324
vn 0.2305 -0.4840 -0.8442
vn -0.0000 -0.2502 -0.9682
vn 0.2636 -0.0000 -0.9646
vn -0.0000 0.2502 -0.9682
vn 0.2305 0.4840 -0.8442
vn -0.0000 0.6809 -0.7324
vn 0.1458 0.8384 -0.5252
vn -0.1458 0.8384 -0.5252
vn -0.2305 0.4840 -0.8442
vn -0.3703 0.6801 -0.6327
vn -0.2636 -0.0000 -0.9646
vn -0.4922 0.2500 -0.8338
vn -0.2305 -0.4840 -0.8442
vn -0.4922 -0.2500 -0.8338
vn -0.1458 -0.8384 -0.5252
vn -0.3703 -0.6801 -0.6327
vn -0.3951 -0.8354 -0.3822
vn -0.6411 -0.6757 -0.3640
vn -0.6268 -0.4824 -0.6119
vn -0.8460 -0.2479 -0.4720
vn -0.7166 -0.0000 -0.6975
vn -0.8460 0.2479 -0.4720
vn -0.6268 0.4824 -0.6119
vn -0.6411 0.6757 -0.3640
vn -0.3951 0.8354 -0.3822
vn -0.5444 0.8268 -0.1411
vn -0.8517 0.4755 -0.2203
vn -0.7432 0.6691 -0.0000
vn -0.9687 -0.0000 -0.2481
vn -0.9698 0.2440 -0.0000
vn -0.8517 -0.4755 -0.2203
vn -0.9698 -0.2440 -0.0000
vn -0.5444 -0.8268 -0.1411
vn -0.7432 -0.6691 -0.0000
vn -0.2665 -0.9638 -0.0000
vn -0.5444 -0.8268 0.1411
vn -0.6411 -0.6757 0.3640
vn -0.8517 -0.4755 0.2203
vn -0.8460 -0.2479 0.4720
vn -0.9687 -0.0000 0.2481
vn -0.8460 0.2479 0.4720
vn -0.8517 0.4755 0.2203
vn -0.6411 0.6757 0.3640
vn -0.5444 0.8268 0.1411
vn -0.3951 0.8354 0.3822
vn -0.6268 0.4824 0.6119
vn -0.3703 0.6801 0.6327
vn -0.7166 -0.0000 0.6975
vn -0.4922 0.2500 0.8338
vn -0.6268 -0.4824 0.6119
vn -0.4922 -0.2500 0.8338
vn -0.3951 -0.8354 0.3822
vn -0.3703 -0.6801 0.6327
vn -0.1458 -0.8384 0.5252
vn -0.0000 -0.6809 0.7324
vn -0.2305 -0.4840 0.8442
vn -0.0000 -0.2502 0.9682
vn -0.2636 -0.0000 0.9646
vn -0.0000 0.2502 0.9682
vn -0.2305 0.4840 0.8442
vn -0.0000 0.6809 0.7324
vn -0.1458 0.8384 0.5252
vn 0.1458 0.8384 0.5252
vn 0.2305 0.4840 0.8442
vn 0.3703 0.6801 0.6327
vn 0.2636 -0.0000 0.9646
vn 0.4922 0.2500 0.8338
vn 0.2305 -0.4840 0.8442
vn 0.4922 -0.2500 0.8338
vn 0.1458 -0.8384 0.5252
vn 0.3703 -0.6801 0.6327
vn 0.3951 -0.8354 0.3822
vn 0.6411 -0.6757 0.3640
vn 0.6268 -0.4824 0.6119
vn 0.8460 -0.2479 0.4720
vn 0.7166 -0.0000 0.6975
vn 0.8460 0.2479 0.4720
vn 0.6268 0.4824 0.6119
vn 0.6411 0.6757 0.3640
vn 0.3951 0.8354 0.3822
vn 0.5444 0.8268 0.1411
vn 0.8517 0.4755 0.2203
vn 0.7432 0.6691 -0.0000
vn 0.9687 -0.0000 0.2481
vn 0.9698 0.2440 -0.0000
vn 0.8517 -0.4755 0.2203
vn 0.9698 -0.2440 -0.0000
vn 0.2665 -0.9638 -0.0000
vn 0.7432 -0.6691 -0.0000
vn 0.5444 -0.8268 0.1411
vn 0.2665 0.9638 -0.0000
vn 0.2429 0.9607 0.1345
vn 0.2429 -0.9607 0.1345
vn 0.1490 -0.9577 0.2461
vn 0.1490 0.9577 0.2461
vn -0.0000 0.9571 0.2898
vn -0.0000 -0.9571 0.2898
vn -0.1490 -0.9577 0.2461
vn -0.1490 0.9577 0.2461
vn -0.2429 0.9607 0.1345
vn -0.2429 -0.9607 0.1345
vn -0.2665 0.9638 -0.0000
vn -0.2429 0.9607 -0.1345
vn -0.2429 -0.9607 -0.1345
vn -0.1490 -0.9577 -0.2461
vn -0.1490 0.9577 -0.2461
vn -0.0000 0.9571 -0.2898
vn -0.0000 -0.9571 -0.2898
vn 0.1490 -0.9577 -0.2461
vn 0.1490 0.9577 -0.2461
vn 0.5444 0.8268 -0.1411
vn 0.8517 0.4755 -0.2203
vn 0.9687 -0.0000 -0.2481
vn 0.8517 -0.4755 -0.2203
vn 0.2429 -0.9607 -0.1345
vn 0.0305 0.0527 -0.9981
vn 0.0717 0.1241 0.9897
vn 0.0609 -0.0000 -0.9981
vn 0.1433 -0.0000 0.9897
vn 0.0304 -0.0527 -0.9981
vn 0.0717 -0.1241 0.9897
vn -0.0304 -0.0527 -0.9981
vn -0.0717 -0.1241 0.9897
vn -0.0609 -0.0000 -0.9981
vn -0.1433 -0.0000 0.9897
vn -0.0305 0.0527 -0.9981
vn -0.0717 0.1241 0.9897
vn 0.4997 0.8655 -0.0357
vn 0.9994 -0.0000 -0.0357
vn 0.4997 -0.8655 -0.0357
vn -0.4997 -0.8655 -0.0357
vn -0.9994 -0.0000 -0.0357
vn -0.4997 0.8655 -0.0357
vn 0.5000 0.8660 -0.0000
vn 0.4997 0.8655 0.0341
vn 0.9994 -0.0000 0.0341
vn 0.5000 -0.8660 -0.0000
vn 0.4997 -0.8655 0.0341
vn -0.5000 -0.8660 -0.0000
vn -0.4997 -0.8655 0.0341
vn -0.9994 -0.0000 0.0341
vn -0.4997 0.8655 0.0341
vn -0.5000 0.8660 -0.0000
vn 0.3730 -0.9223 -0.1010
vn 0.7170 -0.6715 -0.1870
vn 0.9390 -0.2455 -0.2411
vn 0.9390 0.2455 -0.2411
vn 0.7170 0.6715 -0.1870
vn 0.3730 0.9223 -0.1010
vn 0.2519 0.9321 -0.2604
vn 0.5246 0.6791 -0.5134
vn 0.6937 0.2493 -0.6757
vn 0.6937 -0.2493 -0.6757
vn 0.5247 -0.6791 -0.5134
vn 0.2519 -0.9321 -0.2604
vn 0.0847 -0.9390 -0.3333
vn 0.1929 -0.6812 -0.7062
vn 0.2552 -0.2501 -0.9340
vn 0.2552 0.2501 -0.9340
vn 0.1929 0.6812 -0.7062
vn 0.0847 0.9390 -0.3333
vn -0.0847 0.9390 -0.3333
vn -0.1929 0.6812 -0.7062
vn -0.2552 0.2501 -0.9340
vn -0.2552 -0.2501 -0.9340
vn -0.1929 -0.6812 -0.7062
vn -0.0847 -0.9390 -0.3333
vn -0.2519 -0.9321 -0.2604
vn -0.5246 -0.6791 -0.5134
vn -0.6937 -0.2493 -0.6757
vn -0.6937 0.2493 -0.6757
vn -0.5247 0.6791 -0.5134
vn -0.2519 0.9321 -0.2604
vn -0.3730 0.9223 -0.1010
vn -0.7170 0.6715 -0.1870
vn -0.9390 0.2455 -0.2411
vn -0.9390 -0.2455 -0.2411
vn -0.7170 -0.6715 -0.1870
vn -0.3730 -0.9223 -0.1010
vn -0.3730 -0.9223 0.1010
vn -0.7170 -0.6715 0.1870
vn -0.9390 -0.2455 0.2411
vn -0.9390 0.2455 0.2411
vn -0.7170 0.6715 0.1870
vn -0.3730 0.9223 0.1010
vn -0.2519 0.9321 0.2604
vn -0.5247 0.6791 0.5134
vn -0.6937 0.2493 0.6757
vn -0.6937 -0.2493 0.6757
vn -0.5247 -0.6791 0.5134
vn -0.2519 -0.9321 0.2604
vn -0.0847 -0.9390 0.3333
vn -0.1929 -0.6812 0.7062
vn -0.2552 -0.2501 0.9340
vn -0.2552 0.2502 0.9340
vn -0.1929 0.6812 0.7062
vn -0.0847 0.9390 0.3333
vn 0.0847 0.9390 0.3333
vn 0.1929 0.6812 0.7062
vn 0.2552 0.2501 0.9340
vn 0.2552 -0.2501 0.9340
vn 0.1929 -0.6812 0.7062
vn 0.0847 -0.9390 0.3333
vn 0.2519 -0.9321 0.2604
vn 0.5247 -0.6791 0.5134
vn 0.6937 -0.2493 0.6757
vn 0.6937 0.2493 0.6757
vn 0.5247 0.6791 0.5134
vn 0.2519 0.9321 0.2604
vn 0.3730 0.9223 0.1010
vn 0.7170 0.6715 0.1870
vn 0.9390 0.2455 0.2411
vn 0.9390 -0.2455 0.2411
vn 0.7170 -0.6715 0.1870
vn 0.3730 -0.9223 0.1010
s 1
usemtl Borracha_Preta
f 27//27 247//243 305//299 143//139
f 59//58 274//270 305//299 247//243
f 28//28 143//139 305//299 274//270
f 88//86 248//244 306//300 273//269
f 248//244 27//27 143//139 306//300
f 306//300 143//139 28//28 144//140
f 273//269 306//300 144//140 29//29
f 87//85 246//242 307//301 272//268
f 246//242 88//86 273//269 307//301
f 307//301 273//269 29//29 145//141
f 272//268 307//301 145//141 30//30
f 86//84 244//240 308//302 271//267
f 244//240 87//85 272//268 308//302
f 308//302 272//268 30//30 146//142
f 271//267 308//302 146//142 31//31
f 85//83 242//238 309//303 270//266
f 242//238 86//84 271//267 309//303
f 309//303 271//267 31//31 147//143
f 270//266 309//303 147//143 32//32
f 33//33 250//246 310//304 148//144
f 85//83 270//266 310//304 250//246
f 32//32 148//144 310//304 270//266
f 33//33 148//144 311//305 269//265
f 32//32 149//145 311//305 148//144
f 34//34 269//265 311//305 149//145
f 32//32 147//143 312//306 149//145
f 147//143 31//31 150//146 312//306
f 312//306 150//146 35//35 151//147
f 149//145 312//306 151//147 34//34
f 31//31 146//142 313//307 150//146
f 146//142 30//30 152//148 313//307
f 313//307 152//148 36//36 153//149
f 150//146 313//307 153//149 35//35
f 30//30 145//141 314//308 152//148
f 145//141 29//29 154//150 314//308
f 314//308 154//150 37//37 155//151
f 152//148 314//308 155//151 36//36
f 29//29 144//140 315//309 154//150
f 144//140 28//28 156//152 315//309
f 315//309 156//152 38//38 157//153
f 154//150 315//309 157//153 37//37
f 28//28 274//270 316//310 156//152
f 59//58 268//264 316//310 274//270
f 38//38 156//152 316//310 268//264
f 38//38 268//264 317//311 158//154
f 59//58 267//263 317//311 268//264
f 39//39 158//154 317//311 267//263
f 37//37 157//153 318//312 160//156
f 157//153 38//38 158//154 318//312
f 318//312 158//154 39//39 159//155
f 160//156 318//312 159//155 40//40
f 36//36 155//151 319//313 162//158
f 155//151 37//37 160//156 319//313
f 319//313 160//156 40//40 161//157
f 162//158 319//313 161//157 41//13
f 35//35 153//149 320//314 164//160
f 153//149 36//36 162//158 320//314
f 320//314 162//158 41//13 163//159
f 164//160 320//314 163//159 42//41
f 34//34 151//147 321//315 166//162
f 151//147 35//35 164//160 321//315
f 321//315 164//160 42//41 165//161
f 166//162 321//315 165//161 43//42
f 33//33 269//265 322//316 266//262
f 34//34 166//162 322//316 269//265
f 43//42 266//262 322//316 166//162
f 33//33 266//262 323//317 265//261
f 43//42 167//163 323//317 266//262
f 44//43 265//261 323//317 167//163
f 43//42 165//161 324//318 167//163
f 165//161 42//41 168//164 324//318
f 324//318 168//164 45//44 169//165
f 167//163 324//318 169//165 44//43
f 42//41 163//159 325//319 168//164
f 163//159 41//13 170//166 325//319
f 325//319 170//166 46//45 171//167
f 168//164 325//319 171//167 45//44
f 41//13 161//157 326//320 170//166
f 161//157 40//40 172//168 326//320
f 326//320 172//168 47//46 173//169
f 170//166 326//320 173//169 46//45
f 40//40 159//155 327//321 172//168
f 159//155 39//39 174//170 327//321
f 327//321 174//170 48//47 175//171
f 172//168 327//321 175//171 47//46
f 39//39 267//263 328//322 174//170
f 59//58 264//260 328//322 267//263
f 48//47 174//170 328//322 264//260
f 48//47 264//260 329//323 176//172
f 59//58 263//259 329//323 264//260
f 49//48 176//172 329//323 263//259
f 47//46 175//171 330//324 178//174
f 175//171 48//47 176//172 330//324
f 330//324 176//172 49//48 177//173
f 178//174 330//324 177//173 50//49
f 46//45 173//169 331//325 180//176
f 173//169 47//46 178//174 331//325
f 331//325 178//174 50//49 179//175
f 180//176 331//325 179//175 51//50
f 45//44 171//167 332//326 182//178
f 171//167 46//45 180//176 332//326
f 332//326 180//176 51//50 181//177
f 182//178 332//326 181//177 52//51
f 44//43 169//165 333//327 184//180
f 169//165 45//44 182//178 333//327
f 333//327 182//178 52//51 183//179
f 184//180 333//327 183//179 53//52
f 33//33 265//261 334//328 262//258
f 44//43 184//180 334//328 265//261
f 53//52 262//258 334//328 184//180
f 33//33 262//258 335//329 261//257
f 53//52 185//181 335//329 262//258
f 54//53 261//257 335//329 185//181
f 53//52 183//179 336//330 185//181
f 183//179 52//51 186//182 336//330
f 336//330 186//182 55//54 187//183
f 185//181 336//330 187//183 54//53
f 52//51 181//177 337//331 186//182
f 181//177 51//50 188//184 337//331
f 337//331 188//184 56//55 189//185
f 186//182 337//331 189//185 55//54
f 51//50 179//175 338//332 188//184
f 179//175 50//49 190//186 338//332
f 338//332 190//186 57//56 191//187
f 188//184 338//332 191//187 56//55
f 50//49 177//173 339//333 190//186
f 177//173 49//48 192//188 339//333
f 339//333 192//188 58//57 193//189
f 190//186 339//333 193//189 57//56
f 49//48 263//259 340//334 192//188
f 59//58 194//190 340//334 263//259
f 58//57 192//188 340//334 194//190
f 58//57 194//190 341//335 195//191
f 59//58 260//256 341//335 194//190
f 60//59 195//191 341//335 260//256
f 57//56 193//189 342//336 197//193
f 193//189 58//57 195//191 342//336
f 342//336 195//191 60//59 196//192
f 197//193 342//336 196//192 61//60
f 56//55 191//187 343//337 199//195
f 191//187 57//56 197//193 343//337
f 343//337 197//193 61//60 198//194
f 199//195 343//337 198//194 62//61
f 55//54 189//185 344//338 201//197
f 189//185 56//55 199//195 344//338
f 344//338 199//195 62//61 200//196
f 201//197 344//338 200//196 63//62
f 54//53 187//183 345//339 203//199
f 187//183 55//54 201//197 345//339
f 345//339 201//197 63//62 202//198
f 203//199 345//339 202//198 64//63
f 33//33 261//257 346//340 259//255
f 54//53 203//199 346//340 261//257
f 64//63 259//255 346//340 203//199
f 33//33 259//255 347//341 258//254
f 64//63 204//200 347//341 259//255
f 65//64 258//254 347//341 204//200
f 64//63 202//198 348//342 204//200
f 202//198 63//62 205//201 348//342
f 348//342 205//201 66//65 206//202
f 204//200 348//342 206//202 65//64
f 63//62 200//196 349//343 205//201
f 200//196 62//61 207//203 349//343
f 349//343 207//203 67//66 208//204
f 205//201 349//343 208//204 66//65
f 62//61 198//194 350//344 207//203
f 198//194 61//60 209//205 350//344
f 350//344 209//205 68//67 210//206
f 207//203 350//344 210//206 67//66
f 61//60 196//192 351//345 209//205
f 196//192 60//59 211//207 351//345
f 351//345 211//207 69//68 212//208
f 209//205 351//345 212//208 68//67
f 60//59 260//256 352//346 211//207
f 59//58 257//253 352//346 260//256
f 69//68 211//207 352//346 257//253
f 69//68 257//253 353//347 213//209
f 59//58 256//252 353//347 257//253
f 70//69 213//209 353//347 256//252
f 68//67 212//208 354//348 215//211
f 212//208 69//68 213//209 354//348
f 354//348 213//209 70//69 214//210
f 215//211 354//348 214//210 71//70
f 67//66 210//206 355//349 217//213
f 210//206 68//67 215//211 355//349
f 355//349 215//211 71//70 216//212
f 217//213 355//349 216//212 72//14
f 66//65 208//204 356//350 219//215
f 208//204 67//66 217//213 356//350
f 356//350 217//213 72//14 218//214
f 219//215 356//350 218//214 73//71
f 65//64 206//202 357//351 221//217
f 206//202 66//65 219//215 357//351
f 357//351 219//215 73//71 220//216
f 221//217 357//351 220//216 74//72
f 33//33 258//254 358//352 255//251
f 65//64 221//217 358//352 258//254
f 74//72 255//251 358//352 221//217
f 33//33 255//251 359//353 254//250
f 74//72 222//218 359//353 255//251
f 75//73 254//250 359//353 222//218
f 74//72 220//216 360//354 222//218
f 220//216 73//71 223//219 360//354
f 360//354 223//219 76//74 224//220
f 222//218 360//354 224//220 75//73
f 73//71 218//214 361//355 223//219
f 218//214 72//14 225//221 361//355
f 361//355 225//221 77//75 226//222
f 223//219 361//355 226//222 76//74
f 72//14 216//212 362//356 225//221
f 216//212 71//70 227//223 362//356
f 362//356 227//223 78//76 228//224
f 225//221 362//356 228//224 77//75
f 71//70 214//210 363//357 227//223
f 214//210 70//69 229//225 363//357
f 363//357 229//225 79//77 230//226
f 227//223 363//357 230//226 78//76
f 70//69 256//252 364//358 229//225
f 59//58 253//249 364//358 256//252
f 79//77 229//225 364//358 253//249
f 79//77 253//249 365//359 231//227
f 59//58 252//248 365//359 253//249
f 80//78 231//227 365//359 252//248
f 78//76 230//226 366//360 233//229
f 230//226 79//77 231//227 366//360
f 366//360 231//227 80//78 232//228
f 233//229 366//360 232//228 81//79
f 77//75 228//224 367//361 235//231
f 228//224 78//76 233//229 367//361
f 367//361 233//229 81//79 234//230
f 235//231 367//361 234//230 82//80
f 76//74 226//222 368//362 237//233
f 226//222 77//75 235//231 368//362
f 368//362 235//231 82//80 236//232
f 237//233 368//362 236//232 83//81
f 75//73 224//220 369//363 239//235
f 224//220 76//74 237//233 369//363
f 369//363 237//233 83//81 238//234
f 239//235 369//363 238//234 84//82
f 33//33 254//250 370//364 251//247
f 75//73 239//235 370//364 254//250
f 84//82 251//247 370//364 239//235
f 33//33 251//247 371//365 250//246
f 84//82 240//236 371//365 251//247
f 85//83 250//246 371//365 240//236
f 84//82 238//234 372//366 240//236
f 238//234 83//81 241//237 372//366
f 372//366 241//237 86//84 242//238
f 240//236 372//366 242//238 85//83
f 83//81 236//232 373//367 241//237
f 236//232 82//80 243//239 373//367
f 373//367 243//239 87//85 244//240
f 241//237 373//367 244//240 86//84
f 82//80 234//230 374//368 243//239
f 234//230 81//79 245//241 374//368
f 374//368 245//241 88//86 246//242
f 243//239 374//368 246//242 87//85
f 81//79 232//228 375//369 245//241
f 232//228 80//78 249//245 375//369
f 375//369 249//245 27//27 248//244
f 245//241 375//369 248//244 88//86
f 80//78 252//248 376//370 249//245
f 59//58 247//243 376//370 252//248
f 27//27 249//245 376//370 247//243
usemtl Plastico_Branco
f 13//13 89//87 275//271 91//89
f 1//1 90//88 275//271 89//87
f 2//2 91//89 275//271 90//88
f 14//14 94//92 276//272 92//90
f 8//8 93//91 276//272 94//92
f 7//7 92//90 276//272 93//91
f 13//13 91//89 277//273 96//94
f 2//2 95//93 277//273 91//89
f 3//3 96//94 277//273 95//93
f 14//14 98//96 278//274 94//92
f 9//9 97//95 278//274 98//96
f 8//8 94//92 278//274 97//95
f 13//13 96//94 279//275 100//98
f 3//3 99//97 279//275 96//94
f 4//4 100//98 279//275 99//97
f 14//14 102//100 280//276 98//96
f 10//10 101//99 280//276 102//100
f 9//9 98//96 280//276 101//99
f 13//13 100//98 281//277 104//102
f 4//4 103//101 281//277 100//98
f 5//5 104//102 281//277 103//101
f 14//14 106//104 282//278 102//100
f 11//11 105//103 282//278 106//104
f 10//10 102//100 282//278 105//103
f 13//13 104//102 283//279 108//106
f 5//5 107//105 283//279 104//102
f 6//6 108//106 283//279 107//105
f 14//14 110//108 284//280 106//104
f 12//12 109//107 284//280 110//108
f 11//11 106//104 284//280 109//107
f 6//6 111//109 285//281 108//106
f 1//1 89//87 285//281 111//109
f 13//13 108//106 285//281 89//87
f 14//14 92//90 286//282 110//108
f 7//7 112//110 286//282 92//90
f 12//12 110//108 286//282 112//110
f 1//1 114//112 287//283 90//88
f 114//112 16//16 119//117 287//283
f 287//283 119//117 15//15 113//111
f 90//88 287//283 113//111 2//2
f 2//2 113//111 288//284 95//93
f 113//111 15//15 120//118 288//284
f 288//284 120//118 17//17 115//113
f 95//93 288//284 115//113 3//3
f 3//3 115//113 289//285 99//97
f 115//113 17//17 121//119 289//285
f 289//285 121//119 18//18 116//114
f 99//97 289//285 116//114 4//4
f 4//4 116//114 290//286 103//101
f 116//114 18//18 122//120 290//286
f 290//286 122//120 19//19 117//115
f 103//101 290//286 117//115 5//5
f 5//5 117//115 291//287 107//105
f 117//115 19//19 123//121 291//287
f 291//287 123//121 20//20 118//116
f 107//105 291//287 118//116 6//6
f 16//16 114//112 292//288 124//122
f 114//112 1//1 111//109 292//288
f 292//288 111//109 6//6 118//116
f 124//122 292//288 118//116 20//20
f 16//16 127//33 293//289 119//117
f 127//33 22//22 137//133 293//289
f 293//289 137//133 21//21 125//123
f 119//117 293//289 125//123 15//15
f 22//22 128//125 294//290 137//133
f 128//125 7//7 93//91 294//290
f 294//290 93//91 8//8 126//124
f 137//133 294//290 126//124 21//21
f 15//15 125//123 295//85 120//118
f 125//123 21//21 138//134 295//85
f 295//85 138//134 23//23 129//126
f 120//118 295//85 129//126 17//17
f 21//21 126//124 296//291 138//134
f 126//124 8//8 97//95 296//291
f 296//291 97//95 9//9 130//127
f 138//134 296//291 130//127 23//23
f 17//17 129//126 297//292 121//119
f 129//126 23//23 139//135 297//292
f 297//292 139//135 24//24 131//58
f 121//119 297//292 131//58 18//18
f 23//23 130//127 298//293 139//135
f 130//127 9//9 101//99 298//293
f 298//293 101//99 10//10 132//128
f 139//135 298//293 132//128 24//24
f 18//18 131//58 299//294 122//120
f 131//58 24//24 140//136 299//294
f 299//294 140//136 25//25 133//129
f 122//120 299//294 133//129 19//19
f 24//24 132//128 300//295 140//136
f 132//128 10//10 105//103 300//295
f 300//295 105//103 11//11 134//130
f 140//136 300//295 134//130 25//25
f 19//19 133//129 301//55 123//121
f 133//129 25//25 141//137 301//55
f 301//55 141//137 26//26 135//131
f 123//121 301//55 135//131 20//20
f 25//25 134//130 302//296 141//137
f 134//130 11//11 109//107 302//296
f 302//296 109//107 12//12 136//132
f 141//137 302//296 136//132 26//26
f 7//7 128//125 303//297 112//110
f 128//125 22//22 142//138 303//297
f 303//297 142//138 26//26 136//132
f 112//110 303//297 136//132 12//12
f 22//22 127//33 304//298 142//138
f 127//33 16//16 124//122 304//298
f 304//298 124//122 20//20 135//131
f 142//138 304//298 135//131 26//26
